<?xml version="1.0" encoding="utf-8" ?><svg xmlns="http://www.w3.org/2000/svg" xmlns:xlink="http://www.w3.org/1999/xlink" width="1024" height="1024" viewBox="0 0 1024 1024"><path fill="#D3D2D2" d="M0 0L486.589 0L539.803 0L1024 0L1024 486.131L1024 532.393L1024 1024L530.436 1024L504.755 1024L503.287 1024L493.753 1024L0 1024L0 538.278L0 488.137L0 0Z"/><path fill="#353031" d="M0 538.278C1.70956 544.604 1.79605 556.028 2.51878 562.983C3.97969 577.557 6.02472 592.066 8.64893 606.476C17.9634 657.72 35.0511 707.24 59.321 753.324C65.1833 764.49 71.9613 774.297 77.8238 785.016C78.993 779.123 80.8067 772.761 82.5549 766.787C87.3051 750.555 93.0775 730.83 106.773 719.903C112.236 715.545 118.122 716.744 122.889 714.788C128.67 712.417 134.927 709.567 140.769 707.104C178.096 691.242 215.264 675.01 252.268 658.411L283.453 644.834C297.825 638.665 301.363 637.527 313.863 628.052C328.967 616.603 336.918 608.104 348.553 593.472C357.712 581.955 370.724 562.483 383.013 555.652C383.506 557.068 383.548 556.852 383.662 558.287C383.522 559.225 382.79 564.993 382.647 565.318C382.396 572.926 380.96 581.338 380.828 588.352L382.929 587.355C382.08 613.877 378.197 639.952 375.56 666.103C384.351 678.689 396.948 689.659 411.025 695.899C415.711 698.495 421.887 700.509 427.085 702.075C480.332 718.54 545.068 696.364 581.268 654.796C583.471 652.267 590.249 612.656 590.955 607.828C591.73 605.654 591.841 604.705 592.222 602.391C597.34 611.79 579.474 672.136 575.914 685.663C568.055 716.079 560.774 746.642 554.074 777.334C543.816 822.118 534.322 867.073 525.594 912.181C520.828 936.781 516.226 961.413 511.789 986.075L507.696 1009.59C507.124 1012.94 506.013 1021.17 504.755 1024L503.287 1024L493.753 1024L0 1024L0 538.278Z"/><path fill="#1D1C1C" d="M380.828 588.352L382.929 587.355C382.08 613.877 378.197 639.952 375.56 666.103C384.351 678.689 396.948 689.659 411.025 695.899C415.711 698.495 421.887 700.509 427.085 702.075C480.332 718.54 545.068 696.364 581.268 654.796C583.471 652.267 590.249 612.656 590.955 607.828C591.73 605.654 591.841 604.705 592.222 602.391C597.34 611.79 579.474 672.136 575.914 685.663C568.055 716.079 560.774 746.642 554.074 777.334C543.816 822.118 534.322 867.073 525.594 912.181C520.828 936.781 516.226 961.413 511.789 986.075L507.696 1009.59C507.124 1012.94 506.013 1021.17 504.755 1024L503.287 1024L493.753 1024C491.149 1023.52 483.562 1023.15 480.714 1022.97C472.391 1022.5 464.079 1021.86 455.783 1021.04C426.211 1017.78 396.978 1011.96 368.411 1003.64C362.181 1001.89 350.568 998.836 344.959 996.276L343.23 995.921C342.751 990.17 342.767 982.072 342.607 976.171L341.726 934.552C340.777 854.601 344.308 774.66 352.304 695.104C354.743 671.108 358.525 632.302 364.397 609.567C368.142 605.452 376.254 594.658 378.215 589.739L379.082 589.443L379.362 591.568C380.155 590.377 380.346 589.671 380.828 588.352Z"/><path d="M380.828 588.352L382.929 587.355C382.08 613.877 378.197 639.952 375.56 666.103C384.351 678.689 396.948 689.659 411.025 695.899C415.711 698.495 421.887 700.509 427.085 702.075C480.332 718.54 545.068 696.364 581.268 654.796C583.471 652.267 590.249 612.656 590.955 607.828C591.73 605.654 591.841 604.705 592.222 602.391C597.34 611.79 579.474 672.136 575.914 685.663C568.055 716.079 560.774 746.642 554.074 777.334C543.816 822.118 534.322 867.073 525.594 912.181C520.828 936.781 516.226 961.413 511.789 986.075L507.696 1009.59C507.124 1012.94 506.013 1021.17 504.755 1024L503.287 1024C502.295 1019.38 507.314 996.621 508.38 990.386C520.715 920.614 534.674 851.14 550.246 782.018C559.412 741.544 568.424 700.074 580.473 660.364C576.228 663.948 572.384 668.112 568.104 671.803C560.026 678.964 551.041 684.089 541.814 689.541C488.818 720.848 402.544 719.989 369.016 660.675C365.898 655.159 363.977 648.852 361.067 643.134L360.76 642.543C350.346 726.641 344.838 811.275 344.263 896.014C344.065 927.856 344.922 959.99 345.873 991.807C345.934 993.835 346.148 995.024 344.959 996.276L343.23 995.921C342.751 990.17 342.767 982.072 342.607 976.171L341.726 934.552C340.777 854.601 344.308 774.66 352.304 695.104C354.743 671.108 358.525 632.302 364.397 609.567C368.142 605.452 376.254 594.658 378.215 589.739L379.082 589.443L379.362 591.568C380.155 590.377 380.346 589.671 380.828 588.352Z"/><path fill="#CE947C" d="M380.828 588.352L382.929 587.355C382.08 613.877 378.197 639.952 375.56 666.103C371.399 660.659 367.121 650.97 364.708 644.529C360.648 635.292 363.358 628.962 364.594 620.068C366.364 607.334 374.153 602.892 379.362 591.568C380.155 590.377 380.346 589.671 380.828 588.352Z"/><path fill="#FFFEFE" d="M0 538.278C1.70956 544.604 1.79605 556.028 2.51878 562.983C3.97969 577.557 6.02472 592.066 8.64893 606.476C17.9634 657.72 35.0511 707.24 59.321 753.324C65.1833 764.49 71.9613 774.297 77.8238 785.016L79.1337 787.229C87.4497 800.831 98.2297 815.15 107.929 827.743C110.699 831.339 117.157 839.534 120.27 842.573C121.253 844.002 121.658 844.558 122.829 845.825C155.019 885.594 206.599 927.657 250.572 952.975L251.99 953.893C280.019 971.264 312.447 984.419 343.23 995.921L344.959 996.276C350.568 998.836 362.181 1001.89 368.411 1003.64C396.978 1011.96 426.211 1017.78 455.783 1021.04C464.079 1021.86 472.391 1022.5 480.714 1022.97C483.562 1023.15 491.149 1023.52 493.753 1024L0 1024L0 538.278Z"/><path fill="#353031" d="M383.013 555.652C383.506 557.068 383.548 556.852 383.662 558.287C373.538 563.493 347.631 600.223 336.838 611.94C332.366 616.78 327.46 621.199 322.18 625.14C316.808 629.212 307.729 635.079 303.966 640.063C299.073 646.544 294.543 654.826 289.748 661.481C276.664 679.644 262.801 701.026 248.471 718.14C252.228 720.309 273.586 731.236 274.514 733.311C272.47 736.397 232.181 757.294 225.892 761.501C226.645 776.952 228.89 795.323 230.698 810.821C234.982 846.218 240.189 881.497 246.316 916.621C247.123 921.198 253.259 951.649 251.99 953.893L250.572 952.975C206.599 927.657 155.019 885.594 122.829 845.825C121.658 844.558 121.253 844.002 120.27 842.573C117.157 839.534 110.699 831.339 107.929 827.743C98.2297 815.15 87.4497 800.831 79.1337 787.229L77.8238 785.016C78.993 779.123 80.8067 772.761 82.5549 766.787C87.3051 750.555 93.0775 730.83 106.773 719.903C112.236 715.545 118.122 716.744 122.889 714.788C128.67 712.417 134.927 709.567 140.769 707.104C178.096 691.242 215.264 675.01 252.268 658.411L283.453 644.834C297.825 638.665 301.363 637.527 313.863 628.052C328.967 616.603 336.918 608.104 348.553 593.472C357.712 581.955 370.724 562.483 383.013 555.652Z"/><path d="M383.013 555.652C383.506 557.068 383.548 556.852 383.662 558.287C373.538 563.493 347.631 600.223 336.838 611.94C332.366 616.78 327.46 621.199 322.18 625.14C316.808 629.212 307.729 635.079 303.966 640.063C299.073 646.544 294.543 654.826 289.748 661.481C276.664 679.644 262.801 701.026 248.471 718.14C252.228 720.309 273.586 731.236 274.514 733.311C272.47 736.397 232.181 757.294 225.892 761.501C226.645 776.952 228.89 795.323 230.698 810.821C234.982 846.218 240.189 881.497 246.316 916.621C247.123 921.198 253.259 951.649 251.99 953.893L250.572 952.975C247.782 942.767 245.529 927.902 243.712 917.2C240.411 898.175 237.378 879.104 234.614 859.992C231.235 837.36 228.351 814.656 225.965 791.897C224.97 782.179 223.442 769.418 223.444 759.896C227.88 756.684 236.446 752.221 241.39 749.509L270.944 733.293C265.607 730.625 248.683 722.519 246.187 718.275C247.388 714.727 258.096 701.06 261.187 696.943C275.053 678.475 287.47 659.286 300.654 640.384L191.419 688.441C175.449 695.549 159.399 702.476 143.272 709.22C136.56 712.081 129.508 715.238 122.682 717.932C121.192 718.52 115.677 718.888 114.553 719.3C96.9482 725.756 89.8218 753.207 84.8796 769.429C83.1489 775.11 82.1184 781.078 79.678 786.409C79.4965 786.683 79.3151 786.956 79.1337 787.229L77.8238 785.016C78.993 779.123 80.8067 772.761 82.5549 766.787C87.3051 750.555 93.0775 730.83 106.773 719.903C112.236 715.545 118.122 716.744 122.889 714.788C128.67 712.417 134.927 709.567 140.769 707.104C178.096 691.242 215.264 675.01 252.268 658.411L283.453 644.834C297.825 638.665 301.363 637.527 313.863 628.052C328.967 616.603 336.918 608.104 348.553 593.472C357.712 581.955 370.724 562.483 383.013 555.652Z"/><path d="M120.27 842.573C119.475 835.973 118.026 829.441 117.19 822.869C113.4 793.05 108.571 761.546 115.294 731.835C116.026 728.601 116.521 724.999 119.019 722.661L119.57 723.049C119.675 726.428 119.009 727.957 118.183 731.104C115.157 742.636 114.408 756.084 114.688 767.971C114.999 778.789 115.77 789.589 116.999 800.342C118.111 809.877 119.389 819.392 120.833 828.882C121.349 832.233 123.667 843.787 122.829 845.825C121.658 844.558 121.253 844.002 120.27 842.573Z"/><path fill="#1D1C1C" d="M364.397 609.567C365.322 598.486 374.474 573.043 382.647 565.318C382.396 572.926 380.96 581.338 380.828 588.352C380.346 589.671 380.155 590.377 379.362 591.568L379.082 589.443L378.215 589.739C376.254 594.658 368.142 605.452 364.397 609.567Z"/><path fill="#353031" d="M1024 532.393L1024 1024L530.436 1024L504.755 1024C506.013 1021.17 507.124 1012.94 507.696 1009.59L511.789 986.075C516.226 961.413 520.828 936.781 525.594 912.181C534.322 867.073 543.816 822.118 554.074 777.334C560.774 746.642 568.055 716.079 575.914 685.663C579.474 672.136 597.34 611.79 592.222 602.391C590.656 590.198 590.728 577.158 591.046 564.912L591.082 557.561L591.434 557.595L591.948 556.776C599.485 561.737 605.863 574.583 612.027 581.012C625.739 595.315 641.986 608.763 657.343 621.297C659.437 623.005 662.011 626.518 663.801 627.421C669.195 630.142 675.042 632.704 680.543 635.204C690.736 639.789 700.873 644.496 710.952 649.324C730.885 658.895 750.913 669.506 770.787 678.85C788.036 686.751 805.461 694.261 823.049 701.374C842.967 709.609 863.249 717.16 882.39 727.021C885.397 728.57 889.242 728.29 892.166 729.905C897.539 732.872 903.597 739.064 906.295 744.593C916.368 765.23 922.312 788.439 928.816 810.476C974.743 746.688 1005.08 673.024 1017.4 595.394C1019.57 582.298 1021.17 569.114 1022.18 555.878C1022.74 549.17 1023 539.155 1023.92 532.927L1024 532.393Z"/><path fill="#FFFEFE" d="M1024 532.393L1024 1024L530.436 1024C532.595 1023.59 536.169 1023.43 538.464 1023.33C558.659 1022.47 578.069 1019.81 598.057 1016.92L601.037 1016.23L608.44 1014.87C688.737 999.871 764.241 965.751 828.559 915.395L830.174 913.975C836.824 909.194 844.752 902.213 850.963 896.822C880.602 871.093 903.998 843.986 927.291 812.698L928.816 810.476C974.743 746.688 1005.08 673.024 1017.4 595.394C1019.57 582.298 1021.17 569.114 1022.18 555.878C1022.74 549.17 1023 539.155 1023.92 532.927L1024 532.393Z"/><path fill="#353031" d="M591.082 557.561L591.434 557.595C592.069 561.035 596.328 564.25 598.371 567.486C614.017 592.258 639.314 608.139 659.926 628.114C660.684 628.85 662.96 633.97 663.392 635.182C673.016 662.17 679.55 690.654 689.839 717.404C681.656 722.654 673.011 726.997 664.463 731.573C660.493 733.698 654.18 736.714 650.645 739.21C656.042 743.923 663.537 747.369 669.562 751.266C678.232 756.875 688.791 761.798 696.964 767.93C673.966 827.509 649.248 887.637 625.49 947.019L605.984 995.712C604.466 999.563 598.802 1013.29 598.057 1016.92C578.069 1019.81 558.659 1022.47 538.464 1023.33C536.169 1023.43 532.595 1023.59 530.436 1024L504.755 1024C506.013 1021.17 507.124 1012.94 507.696 1009.59L511.789 986.075C516.226 961.413 520.828 936.781 525.594 912.181C534.322 867.073 543.816 822.118 554.074 777.334C560.774 746.642 568.055 716.079 575.914 685.663C579.474 672.136 597.34 611.79 592.222 602.391C590.656 590.198 590.728 577.158 591.046 564.912L591.082 557.561Z"/><path d="M591.948 556.776C599.485 561.737 605.863 574.583 612.027 581.012C625.739 595.315 641.986 608.763 657.343 621.297C659.437 623.005 662.011 626.518 663.801 627.421C669.195 630.142 675.042 632.704 680.543 635.204C690.736 639.789 700.873 644.496 710.952 649.324C730.885 658.895 750.913 669.506 770.787 678.85C788.036 686.751 805.461 694.261 823.049 701.374C842.967 709.609 863.249 717.16 882.39 727.021C885.397 728.57 889.242 728.29 892.166 729.905C897.539 732.872 903.597 739.064 906.295 744.593C916.368 765.23 922.312 788.439 928.816 810.476L927.291 812.698C924.055 806.769 923.091 799.618 920.763 793.465C913.14 773.318 908.415 732.525 881.677 730.509C876.309 725.969 859.391 719.572 852.369 716.551C826.358 705.435 799.395 695.423 773.777 683.43C737.624 666.505 701.717 646.316 664.822 631.086C670.706 648.193 675.901 666.687 681.468 683.972C683.517 690.333 691.698 714.204 691.957 718.579C688.447 722.863 662.101 735.814 655.127 739.453C661.393 743.02 697.142 763.582 699.638 767.193C700.976 769.436 702.304 771.625 703.544 773.928C701.749 780.427 697.664 789.872 695.065 796.353L679.087 835.889L626.492 967.989C624.077 974.06 608.946 1010.27 608.44 1014.87L601.037 1016.23L598.057 1016.92C598.802 1013.29 604.466 999.563 605.984 995.712L625.49 947.019C649.248 887.637 673.966 827.509 696.964 767.93C688.791 761.798 678.232 756.875 669.562 751.266C663.537 747.369 656.042 743.923 650.645 739.21C654.18 736.714 660.493 733.698 664.463 731.573C673.011 726.997 681.656 722.654 689.839 717.404C679.55 690.654 673.016 662.17 663.392 635.182C662.96 633.97 660.684 628.85 659.926 628.114C639.314 608.139 614.017 592.258 598.371 567.486C596.328 564.25 592.069 561.035 591.434 557.595L591.948 556.776Z"/><path fill="#1D1C1C" d="M699.638 767.193C700.976 769.436 702.304 771.625 703.544 773.928C701.749 780.427 697.664 789.872 695.065 796.353L679.087 835.889L626.492 967.989C624.077 974.06 608.946 1010.27 608.44 1014.87L601.037 1016.23C602.389 1011.66 605.472 1004.28 607.282 999.632L623.002 960.427L677.453 824.241L691.264 789.646C693.928 782.951 697.78 773.968 699.638 767.193Z"/><path d="M828.559 915.395C828.407 915.145 828.207 914.841 828.124 914.564C827.527 912.555 857.784 792.753 861.227 779.783C863.521 771.474 865.969 763.207 868.57 754.989C870.838 747.844 872.69 743.031 876.696 736.72C875.523 742.943 872.108 752.204 870.105 758.598C866.958 768.729 864.075 778.939 861.457 789.219L841.499 869.883C838.164 883.379 834.257 900.829 830.174 913.975L828.559 915.395Z"/><path fill="#E9B89C" d="M519.073 193.041C524.164 191.553 534.603 192.786 539.894 193.98C548.318 195.882 555.703 201.921 563.082 206.201C564.136 206.211 566.17 206.077 566.981 206.465C567.797 208.516 571.673 211.139 573.657 211.901C582.457 215.284 592.458 214.555 600.348 209.31C601.27 210.462 601.279 210.252 601.802 211.552C607.794 216.237 609.616 216.807 617.127 218.135C616.787 228.854 617.654 235.615 624.894 244.218C631.441 251.996 641.588 251.243 643.733 252.987C645.097 264.871 652.25 270.654 658.784 279.482L658.628 280.163C656.833 287.841 652.439 295.306 651.252 302.984C650.558 307.475 651.353 314.273 651.651 318.974C652.798 337.058 648.243 354.463 645.327 372.15C643.677 381.978 642.971 392.142 641.248 401.919C635.785 420.201 628.817 437.809 622.06 455.639C615.273 473.55 608.558 494.326 598.138 510.42C589.705 523.444 547.519 563.586 533.658 573.269C525.843 578.295 518.123 582.09 508.781 583.176C491.308 585.208 462.823 578.763 448.864 567.66C433.907 555.763 399.099 498.058 391.063 478.73C388.621 472.858 387.131 466.877 386.436 460.565C384.678 451.654 385.608 437.686 385.421 428.281C384.996 406.949 385.246 385.718 385.582 364.384C387.7 353.459 392.085 341.916 394.676 330.711C397.721 317.537 398.753 303.675 402.517 290.883C404.453 284.301 412.91 277.741 415.161 271.219C417.097 265.61 413.447 255.967 415.602 250.983C417.974 245.499 423.565 239.289 427.138 234.289C429.946 230.359 431.226 228.001 433.41 223.658C436.872 223.059 439.204 222.675 442.571 221.655C443.846 220.675 444.118 220.774 445.698 220.52C450.412 217.717 453.208 215.484 457.281 211.888C464.703 224.59 479.207 230.936 493.293 222.5C497.369 220.059 499.116 214.709 499.732 210.129C498.369 210.351 496.822 210.479 495.607 211.008L495.027 210.681C496.639 208.933 497.371 208.289 499.239 206.809C504.13 206.571 516.604 197.553 515.41 193.227C516.334 193.247 518.081 193.094 519.073 193.041Z"/><path fill="#CE947C" d="M643.733 252.987C645.097 264.871 652.25 270.654 658.784 279.482L658.628 280.163C656.833 287.841 652.439 295.306 651.252 302.984C650.558 307.475 651.353 314.273 651.651 318.974C652.798 337.058 648.243 354.463 645.327 372.15C643.677 381.978 642.971 392.142 641.248 401.919C635.785 420.201 628.817 437.809 622.06 455.639C615.273 473.55 608.558 494.326 598.138 510.42C589.705 523.444 547.519 563.586 533.658 573.269C533.692 573.015 534.022 571.198 534.072 571.141C556.116 546.333 570.281 514.858 588.414 487.331C593.895 479.152 599.499 471.057 605.227 463.049C612.1 453.418 621.165 441.556 624.971 430.297C631.495 410.994 636.499 387.609 637.306 367.205C637.635 358.871 636.631 350.03 637.047 341.449L637.073 340.962L638.155 340.697C638.809 337.715 633.987 330.46 632.332 327.884C634.524 326.416 632.617 317.898 632.596 314.66C632.509 300.837 636.866 287.031 639.511 273.485C640.781 266.977 641.885 258.984 643.733 252.987Z"/><path fill="#CE947C" d="M442.571 221.655L442.744 222.444C442.086 223.482 437.116 256.867 437.239 261.408C437.373 266.383 429.268 293.252 428.995 291.485L429.407 291.809C427.026 293.492 420.453 297.999 419.905 300.679L421.069 301.004C421.026 301.164 420.999 301.328 420.941 301.483C420.621 302.325 420.161 302.753 419.591 303.43C414.952 308.933 411.475 316.356 408.036 322.659C389.475 356.678 398.312 365.411 394.278 398.863C391.799 419.415 387.451 439.821 386.436 460.565C384.678 451.654 385.608 437.686 385.421 428.281C384.996 406.949 385.246 385.718 385.582 364.384C387.7 353.459 392.085 341.916 394.676 330.711C397.721 317.537 398.753 303.675 402.517 290.883C404.453 284.301 412.91 277.741 415.161 271.219C417.097 265.61 413.447 255.967 415.602 250.983C417.974 245.499 423.565 239.289 427.138 234.289C429.946 230.359 431.226 228.001 433.41 223.658C436.872 223.059 439.204 222.675 442.571 221.655Z"/><path fill="#CE947C" d="M552.878 328.493C564.69 328.545 594.508 326.641 604.635 328.942C597.512 328.941 580.459 333.047 575.887 339.076C571.448 340.335 558.523 342.812 557.162 348.063C556.66 348.699 555.572 350.212 554.996 350.609C551.239 351.582 549.107 352.145 545.588 353.8C540.594 363.894 543.547 398.084 545.278 409.899L544.18 410.337C543.67 411.66 543.738 410.972 544.299 412.462C545.315 416.064 546.354 419.66 547.415 423.249C547.706 427.453 547.551 431.06 544.942 434.551C542.412 437.935 533.773 440.026 532.567 441.402C527.339 440.143 521.31 442.116 514.733 440.524C508.578 439.034 502.747 432.095 498.197 432.629C495.044 434.789 494.224 436.155 490.482 434.245C488.704 429.398 482.128 427.992 481.182 418.394C483.452 419.65 486.43 421.572 489.065 421.364C491.426 418.669 492.045 417.996 495.646 417.993L496.192 417.803C496.358 416.562 494.929 414.983 494.043 413.5L494.333 412.732L495.462 412.516C500.104 414.477 506.257 423.682 509.364 427.952C512.492 429.525 516.101 430.844 519.508 430.434C522.962 430.019 534.18 421.926 535.73 419.293C538.695 414.254 535.697 400.547 534.64 395.069C534.898 392.605 534.385 389.247 534.768 386.226C536.933 369.129 537.47 349.637 546.285 334.649C548.451 333.059 552.025 330.834 552.878 328.493Z"/><path fill="#1D1C1C" d="M489.065 421.364C491.426 418.669 492.045 417.996 495.646 417.993C502.407 422.782 504.774 425.673 507.322 433.543C506.8 432.777 504.372 429.217 503.901 428.951C498.389 425.836 496.313 428.498 492.15 421.919C491.582 422.412 491.172 422.788 490.612 423.317C489.272 422.412 489.831 422.989 489.065 421.364Z"/><path fill="#E9B89C" d="M547.415 423.249C545.444 423.969 542.995 425.107 541.073 424.338C540.644 422.419 543.635 418.065 543.529 415.425C543.483 414.287 543.794 413.45 544.299 412.462C545.315 416.064 546.354 419.66 547.415 423.249Z"/><path fill="#4B3324" d="M524.051 432.094C527.08 428.188 533.885 424.601 538.611 427.658C539.492 429.243 539.387 428.43 538.953 430.177C533.658 435.794 529.612 431.861 526.298 432.786L524.051 432.094Z"/><path fill="#6F4536" d="M519.732 438.246C521.131 435.84 522.374 434.276 524.051 432.094L526.298 432.786C523.674 435.345 522.821 436.22 519.732 438.246Z"/><path fill="#353031" d="M429.407 291.809C434.973 289.034 448.623 284.641 454.624 285.746C466.924 288.01 480.039 291.7 491.979 295.576C496.573 297.067 503.32 298.757 505.223 303.666C507.079 308.05 508.558 314.529 507.036 319.123C500.707 316.328 490.546 312.789 483.872 310.679C463.773 302.284 442.688 296.54 421.069 301.004L419.905 300.679C420.453 297.999 427.026 293.492 429.407 291.809Z"/><path fill="#353031" d="M552.878 328.493C553.398 323.916 555.739 320.909 558.73 317.522C564.849 310.59 574.177 312.172 582.542 312.378C589.836 312.431 597.45 313.606 604.636 314.018C617.673 314.765 623.215 318.837 632.332 327.884C633.987 330.46 638.809 337.715 638.155 340.697L637.073 340.962C631.134 334.032 613.389 329.49 604.635 328.942C594.508 326.641 564.69 328.545 552.878 328.493Z"/><path fill="#1D1C1C" d="M573.504 346.493C586.73 345.179 594.668 346.457 605.656 354.981C610.189 358.498 612.65 362.124 616.372 365.548L616.867 366.196L616.459 367.441C616.199 368.133 616.026 368.48 615.705 369.141C612.372 368.297 613.53 365.803 608.64 365.504L607.887 363.753C601.486 365.517 597.464 366.33 590.734 365.694C588.124 365.426 587.548 365.308 585.016 365.879C582.055 365.405 579.486 364.462 576.636 363.542C576.065 362.075 576.405 362.411 575.395 361.389C572.464 356.143 572.567 354.373 573.518 348.653L573.504 346.493Z"/><path fill="#FFFEFE" d="M590.734 365.694C596.207 362.745 597.93 360.576 598.789 354.398L607.887 363.753C601.486 365.517 597.464 366.33 590.734 365.694Z"/><path fill="#CE947C" d="M483.872 310.679C490.546 312.789 500.707 316.328 507.036 319.123L506.702 319.869C507.656 322.209 510.801 329.477 511.199 331.515C511.158 334.252 511.458 335.622 511.927 338.265C509.329 341.702 509.489 345.306 507.669 348.531L506.666 346.628C506.604 337.273 505.014 327.806 498.178 320.813C495.13 317.695 485.911 314.058 483.872 310.679Z"/><path fill="#FFFEFE" d="M557.466 352.683C561.368 350.406 568.995 347.077 573.504 346.493L573.518 348.653C572.567 354.373 572.464 356.143 575.395 361.389C576.405 362.411 576.065 362.075 576.636 363.542C571.917 361.894 567.746 359.892 562.79 358.761C559.891 358.1 553.671 359.564 553.083 357.019C554.064 355.087 555.729 354.065 557.466 352.683Z"/><path fill="#6F4536" d="M557.466 352.683C561.368 350.406 568.995 347.077 573.504 346.493L573.518 348.653C570.388 349.569 559.75 352.259 560.094 356.18C561.674 357.692 561.876 357.783 564.189 357.515C567.614 357.119 572.112 361.21 575.395 361.389C576.405 362.411 576.065 362.075 576.636 363.542C571.917 361.894 567.746 359.892 562.79 358.761C559.891 358.1 553.671 359.564 553.083 357.019C554.064 355.087 555.729 354.065 557.466 352.683Z"/><path fill="#CE947C" d="M557.162 348.063C563.5 344.792 568.636 342.053 575.812 341.37L574.523 343.349C575.517 345.663 582.951 344.496 585.585 344.587C596.278 344.959 613.78 354.855 616.372 365.548C612.65 362.124 610.189 358.498 605.656 354.981C594.668 346.457 586.73 345.179 573.504 346.493C568.995 347.077 561.368 350.406 557.466 352.683C556.595 351.707 556.048 351.382 554.996 350.609C555.572 350.212 556.66 348.699 557.162 348.063Z"/><path fill="#7E4F3D" d="M575.887 339.076C595.238 339.582 613.206 346.724 622.046 364.839C617.559 361.518 615.611 357.902 611.775 354.214C602.134 344.947 588.917 341.516 575.812 341.37C568.636 342.053 563.5 344.792 557.162 348.063C558.523 342.812 571.448 340.335 575.887 339.076Z"/><path fill="#4B3324" d="M442.571 221.655C443.846 220.675 444.118 220.774 445.698 220.52C454.607 235.809 472.191 231.736 486.354 228.584C472.513 235.933 451.205 239.702 442.744 222.444L442.571 221.655Z"/><path fill="#4B3324" d="M563.082 206.201C564.136 206.211 566.17 206.077 566.981 206.465C567.797 208.516 571.673 211.139 573.657 211.901C582.457 215.284 592.458 214.555 600.348 209.31C601.27 210.462 601.279 210.252 601.802 211.552C592.049 220.386 569.289 218.335 563.082 206.201Z"/><path fill="#6F4536" d="M546.285 334.649C537.47 349.637 536.933 369.129 534.768 386.226C534.385 389.247 534.898 392.605 534.64 395.069C530.312 387.844 536.942 362.028 537.694 353.369C538.245 347.02 541.259 338.918 546.285 334.649Z"/><path fill="#4B3324" d="M515.41 193.227C516.334 193.247 518.081 193.094 519.073 193.041C515.759 200.906 512.227 205.161 504.08 208.205C503.214 208.528 500.219 209.617 499.732 210.129C498.369 210.351 496.822 210.479 495.607 211.008L495.027 210.681C496.639 208.933 497.371 208.289 499.239 206.809C504.13 206.571 516.604 197.553 515.41 193.227Z"/><path fill="#6F4536" d="M511.199 331.515C512.419 334.682 514.04 338.714 514.046 342.062C514.065 352.756 511.298 373.47 508.789 383.665L508.167 383.745C507.752 380.386 508.786 376.659 509.073 373.398C509.908 363.903 514.229 347.281 511.927 338.265C511.458 335.622 511.158 334.252 511.199 331.515Z"/><path fill="#7E4F3D" d="M490.482 434.245C480.888 429.384 476.375 420.17 481.152 409.985C482.178 407.797 486.436 401.803 488.6 401.027C489.247 402.615 483.533 409.889 482.715 412.314C481.879 414.794 481.57 415.819 481.182 418.394C482.128 427.992 488.704 429.398 490.482 434.245Z"/><path fill="#6F4536" d="M544.299 412.462C543.738 410.972 543.67 411.66 544.18 410.337L545.278 409.899C547.836 417.125 551.189 425.16 547.654 432.687C545.38 437.529 538.397 442.065 533.061 441.811L532.567 441.402C533.773 440.026 542.412 437.935 544.942 434.551C547.551 431.06 547.706 427.453 547.415 423.249C546.354 419.66 545.315 416.064 544.299 412.462Z"/><path fill="#4B3324" d="M607.887 363.753L608.64 365.504C600.532 367.629 593.217 369.206 585.016 365.879C587.548 365.308 588.124 365.426 590.734 365.694C597.464 366.33 601.486 365.517 607.887 363.753Z"/><path fill="#7E4F3D" d="M506.666 346.628L507.669 348.531C504.818 353.672 497.246 369.087 493.445 372.869C493.721 368.255 504.405 354.074 506.666 346.628Z"/><path fill="#7E4F3D" d="M616.867 366.196C618.302 367.225 619.373 367.73 620.01 369.342C618.776 369.515 617.438 368.264 616.459 367.441L616.867 366.196Z"/><path fill="#CE947C" d="M452.769 474.636C455.615 473.273 457.277 474.345 462.006 472.953C472.089 469.984 486.392 460.115 496.802 462.67C498.628 463.118 504.491 466.779 506.446 467.808C516.309 467.062 518.998 464.913 526.981 471.237C533.819 476.654 542.934 489.778 549.261 493.826C550.674 494.107 550.476 494.105 551.831 494.697L552.393 495.788C551.231 498.664 548.005 497.34 545.602 496.763C544.279 499.927 539.461 503.125 536.526 504.901C523.673 512.684 509.395 513.774 495.046 510.011C475.16 504.797 466.836 495.81 456.763 479.096C455.531 478.788 453.209 476.984 451.927 476.213L452.769 474.636Z"/><path fill="#CE947C" d="M452.769 474.636C455.615 473.273 457.277 474.345 462.006 472.953C472.089 469.984 486.392 460.115 496.802 462.67C498.628 463.118 504.491 466.779 506.446 467.808C516.309 467.062 518.998 464.913 526.981 471.237C533.819 476.654 542.934 489.778 549.261 493.826C550.674 494.107 550.476 494.105 551.831 494.697L552.393 495.788C551.231 498.664 548.005 497.34 545.602 496.763C538.896 495.121 531.588 489.454 525.085 487.581C519.179 485.368 510.242 486.929 504.532 485.514C491.869 482.376 483.053 477.209 469.302 479.303C466.184 479.778 460.213 479.184 456.763 479.096C455.531 478.788 453.209 476.984 451.927 476.213L452.769 474.636Z"/><path fill="#6F4536" d="M452.769 474.636C466.925 479.202 469.413 476.062 483.527 476.764C488.52 477.013 497.577 481.606 503.022 482.737C511.198 484.435 518.372 482.928 526.462 485.346C531.873 486.964 544.517 495.785 549.261 493.826C550.674 494.107 550.476 494.105 551.831 494.697L552.393 495.788C551.231 498.664 548.005 497.34 545.602 496.763C538.896 495.121 531.588 489.454 525.085 487.581C519.179 485.368 510.242 486.929 504.532 485.514C491.869 482.376 483.053 477.209 469.302 479.303C466.184 479.778 460.213 479.184 456.763 479.096C455.531 478.788 453.209 476.984 451.927 476.213L452.769 474.636Z"/><path fill="#1D1C1C" d="M432.34 333.227C446.337 323.3 462.426 320.957 478.104 328.049C485.934 332.273 488.765 336.444 494.489 342.689C495.212 344.718 495.532 344.597 495.179 346.388C492.897 347.553 488.689 344.554 486.092 343.957C480.861 342.753 475.675 343.709 470.417 343.628C464.721 343.621 461.212 343.607 455.684 342.347C450.272 341.329 445.439 338.432 440.558 335.88L439.464 333.827C437.131 335.409 434.986 335.957 432.488 334.179L432.34 333.227Z"/><path fill="#FFFEFE" d="M478.104 328.049C485.934 332.273 488.765 336.444 494.489 342.689C495.212 344.718 495.532 344.597 495.179 346.388C492.897 347.553 488.689 344.554 486.092 343.957C480.861 342.753 475.675 343.709 470.417 343.628L472.1 341.906C473.048 341.111 473.925 340.235 474.721 339.288C477.086 336.471 477.182 334.128 476.919 330.676C476.737 329.881 477.541 329.004 478.104 328.049Z"/><defs><linearGradient id="gradient_0" gradientUnits="userSpaceOnUse" x1="481.81439" y1="337.62918" x2="489.97366" y2="334.02249"><stop offset="0" stop-color="#573C31"/><stop offset="1" stop-color="#856046"/></linearGradient></defs><path fill="url(#gradient_0)" d="M478.104 328.049C485.934 332.273 488.765 336.444 494.489 342.689L492.922 344.344C491.645 341.637 479.914 331.55 476.919 330.676C476.737 329.881 477.541 329.004 478.104 328.049Z"/><path fill="#6F4536" d="M470.417 343.628L472.1 341.906C477.299 341.931 483.57 342.184 488.825 342.744C489.548 342.821 489.795 344.633 492.922 344.344L494.489 342.689C495.212 344.718 495.532 344.597 495.179 346.388C492.897 347.553 488.689 344.554 486.092 343.957C480.861 342.753 475.675 343.709 470.417 343.628Z"/><path fill="#FFFEFE" d="M452.468 328.588C452.417 334.355 452.437 336.286 456.227 340.918C455.922 341.934 456.109 341.46 455.684 342.347C450.272 341.329 445.439 338.432 440.558 335.88L439.464 333.827L441.319 333.462C445.436 331.872 448.489 330.509 452.468 328.588Z"/><path fill="#6F4536" d="M439.464 333.827L441.319 333.462C444.777 335.776 452.052 340.445 456.227 340.918C455.922 341.934 456.109 341.46 455.684 342.347C450.272 341.329 445.439 338.432 440.558 335.88L439.464 333.827Z"/><path fill="#CE947C" d="M473.756 509.196C481.408 510.379 489.554 511.205 497.095 512.582C504.085 513.859 509.633 515.853 516.989 516.559C522.176 517.056 530.249 514.477 533.462 515.102L533.442 515.856L531.628 517.039C530.826 517.325 530.021 517.605 529.213 517.877C512.466 523.51 497.36 521.337 480.725 514.558C479.092 513.893 474.303 510.86 473.756 509.196Z"/><path fill="#6F4536" d="M452.52 318.689C458.074 317.898 468.273 318.584 473.714 319.921C484.662 322.61 489.721 326.635 495.532 335.9C487.066 328.557 485.859 326.103 475.14 322.424C474.1 322.11 473.05 321.828 471.993 321.578C453.853 317.336 442.781 321.763 427.831 330.909C435.176 322.793 441.811 319.981 452.52 318.689Z"/><path fill="#6F4536" d="M482.101 522.201C489.367 521.086 511.165 523.456 514.77 530.533C510.38 530.377 497.283 522.701 490.501 523.941C487.696 524.454 483.702 524.626 482.101 522.201Z"/><path fill="#7E4F3D" d="M482.446 351.728L482.507 352.499C478.561 355.57 458.639 356.244 453.081 355.749L453.175 354.8C453.253 354.76 479.472 352.102 482.446 351.728Z"/><path fill="#6F4536" d="M513.098 446.367C516.947 447.584 516.425 454.301 515.354 457.206C512.104 466.024 497.07 461.13 505.964 450.032L506.945 449.416C507.455 450.802 499.903 459.833 510.01 460.966C515.354 458.878 514.291 450.782 513.098 446.367Z"/><path fill="#7E4F3D" d="M562.519 366.89C565.943 366.865 581.663 376.96 586.687 378.126C587.04 378.208 587.586 379.081 587.79 379.388C582.584 379.313 565.013 371.13 562.519 366.89Z"/><path fill="#CE947C" d="M440.558 335.88C440.394 335.946 440.229 336.012 440.064 336.078L439.234 336.386C436.598 337.379 427.558 338.773 426.656 335.44C427.577 333.362 429.581 331.159 432.029 331.566L432.34 333.227L432.488 334.179C434.986 335.957 437.131 335.409 439.464 333.827L440.558 335.88Z"/><path fill="#353031" d="M554.346 84.8383C557.7 78.7262 562.774 74.3263 569.59 72.4659C576.094 70.715 583.03 71.6772 588.812 75.1322C594.213 78.3633 597.454 82.8641 600.405 88.2419C605.515 85.4611 615.833 82.4137 619.605 88.6238C619.754 90.1463 619.542 90.4685 618.185 91.4101C614.447 88.5953 615.238 87.903 609.168 88.3C607.025 88.4401 603.357 89.9434 601.313 90.8348C601.85 93.2182 602.065 96.4476 604.444 97.7322C612.559 102.113 621.68 84.2969 637.676 101.496C648.976 97.1867 655.409 97.7896 664.407 106.435C682.552 102.566 701.214 121.002 688.731 137.922C688.397 138.378 688.057 138.829 687.713 139.277C707.584 144.317 710.16 157.755 700.092 173.926C725.555 176.707 742.166 194.091 729.708 219.761C732.688 195.5 727.155 184.217 703.05 177.147C715.178 189.988 731.436 195.56 721.71 217.23L720.751 218.512C721.242 219.571 720.876 219.212 721.724 219.703C726.517 225.331 728.199 228.297 728.143 236.038C727.795 238.302 727.334 240.787 727.228 243.055C736.39 258.352 739.288 271.848 723.37 284.638C724.649 303.994 718.874 304.561 703.493 312.494C701.721 313.407 698.89 316.759 696.282 318.24C693.792 331.759 689.588 333.969 680.95 343.485C679.348 345.25 675.308 353.119 673.826 355.635C669.925 362.207 665.305 368.324 660.051 373.874C659.224 375.252 659.396 375.26 659.152 376.902C656.446 377.348 654.861 377.595 652.196 378.43C649.971 384.071 647.812 389.739 645.721 395.432L644.971 398.975C644.484 400.199 643.269 403.142 643.109 404.351L642.559 406.894L642.077 406.006C642.461 404.653 642.781 403.934 642.624 402.524L641.248 401.919C642.971 392.142 643.677 381.978 645.327 372.15C648.243 354.463 652.798 337.058 651.651 318.974C651.353 314.273 650.558 307.475 651.252 302.984C652.439 295.306 656.833 287.841 658.628 280.163L658.784 279.482C652.25 270.654 645.097 264.871 643.733 252.987C641.588 251.243 631.441 251.996 624.894 244.218C617.654 235.615 616.787 228.854 617.127 218.135C609.616 216.807 607.794 216.237 601.802 211.552C601.279 210.252 601.27 210.462 600.348 209.31C592.458 214.555 582.457 215.284 573.657 211.901C571.673 211.139 567.797 208.516 566.981 206.465C566.17 206.077 564.136 206.211 563.082 206.201C555.703 201.921 548.318 195.882 539.894 193.98C534.603 192.786 524.164 191.553 519.073 193.041C518.081 193.094 516.334 193.247 515.41 193.227C516.604 197.553 504.13 206.571 499.239 206.809C497.371 208.289 496.639 208.933 495.027 210.681L495.607 211.008C496.822 210.479 498.369 210.351 499.732 210.129C499.116 214.709 497.369 220.059 493.293 222.5C479.207 230.936 464.703 224.59 457.281 211.888C453.208 215.484 450.412 217.717 445.698 220.52C444.118 220.774 443.846 220.675 442.571 221.655C439.204 222.675 436.872 223.059 433.41 223.658C431.226 228.001 429.946 230.359 427.138 234.289C423.565 239.289 417.974 245.499 415.602 250.983C413.447 255.967 417.097 265.61 415.161 271.219C412.91 277.741 404.453 284.301 402.517 290.883C398.753 303.675 397.721 317.537 394.676 330.711C392.085 341.916 387.7 353.459 385.582 364.384L383.536 363.035L383.35 360.883L383.562 358.427C385.304 340.788 390.452 327.098 371.245 318.288L371.237 315.959C367.944 306.817 369.267 300.779 368.786 291.443C368.37 283.38 367.85 277.146 368.119 269.042C360.592 265.033 356.99 262.808 361.013 254.087C352.456 245.02 353.443 235.998 360.051 226.209C344.853 212.225 353.148 198.501 363.942 185.433C356.488 176.219 356.071 166.113 362.653 156.092C366.287 150.558 371.808 147.153 377.134 143.417C379.366 129.558 390.285 126.708 402.426 126.997C402.59 126.076 403.56 121.292 403.503 120.746C402.585 111.878 400.041 104.643 411.473 101.992C414.89 101.2 418.046 102.339 421.053 104.317C423.212 103.889 429.047 103.849 431.54 103.776C436.968 93.3451 443.192 87.1997 455.758 87.5163C456.493 87.6502 459.391 88.2377 459.942 88.1771C465.705 89.9872 470.606 93.763 475.558 97.1885C477.345 92.7192 478.918 88.2461 483.112 85.5041C485.117 85.8243 486.769 84.0701 488.758 82.8337C490.8 81.5642 500.332 83.0896 502.635 83.5896C503.484 83.7738 509.036 87.9433 510.784 88.2214C513.566 88.6641 516.836 84.2984 519.5 82.4422C525.431 78.0533 533.2 76.2892 540.391 78.132C542.662 78.7143 544.444 79.5386 546.889 79.8173C549.263 80.5498 552.39 83.2215 554.346 84.8383Z"/><path fill="#E9B89C" d="M461.954 206.594C464.221 203.919 466.173 202.465 469.013 200.586C474.969 213.303 481.648 216.434 495.027 210.681L495.607 211.008C490.54 227.458 467.802 221.23 461.954 206.594Z"/><path fill="#E9B89C" d="M589.107 201.599C595.095 202.917 596.535 204.695 600.348 209.31C592.458 214.555 582.457 215.284 573.657 211.901C571.673 211.139 567.797 208.516 566.981 206.465C577.231 207.273 580.134 203.584 589.107 201.599Z"/><defs><linearGradient id="gradient_1" gradientUnits="userSpaceOnUse" x1="400.86465" y1="112.88871" x2="418.04477" y2="102.7301"><stop offset="0" stop-color="#352416"/><stop offset="1" stop-color="#443A32"/></linearGradient></defs><path fill="url(#gradient_1)" d="M402.426 126.997C402.59 126.076 403.56 121.292 403.503 120.746C402.585 111.878 400.041 104.643 411.473 101.992C414.89 101.2 418.046 102.339 421.053 104.317C420.243 104.413 418.724 104.842 418.159 105.334C415.69 106.49 412.641 107.884 410.8 109.935C410.093 112.659 405.335 117.515 404.262 120.844C402.532 126.217 403.314 137.561 397.085 139.854L396.653 139.559C400.343 135.982 400.62 134.74 401.979 129.957C402.523 128.548 402.433 128.538 402.426 126.997Z"/><path fill="#D3D2D2" d="M410.8 109.935C408.429 111.716 406.64 114.47 404.863 116.885C403.73 114.016 405.942 107.82 408.89 106.182C412.468 104.195 414.389 104.572 418.159 105.334C415.69 106.49 412.641 107.884 410.8 109.935Z"/><path fill="#D3D2D2" d="M380.082 141.891C383.957 134.88 393.669 127.051 401.979 129.957C400.62 134.74 400.343 135.982 396.653 139.559C390.305 140.618 386.745 139.816 380.082 141.891Z"/><path fill="#E9B89C" d="M496.524 193.119C503.655 193.77 508.266 193.766 515.41 193.227C516.604 197.553 504.13 206.571 499.239 206.809C502.587 200.069 500.982 198.49 496.524 193.119Z"/><path fill="#1D1C1C" d="M547.77 102.633C551.348 102.208 554.972 102.379 558.494 103.139C566.651 104.975 576.21 111.51 574.292 121.959C574.018 123.456 571.872 126.784 570.487 127.557C568.924 126.225 572.192 119.22 570.374 115.915C564.382 105.02 550.402 106.432 540.897 110.443C521.765 121.96 538.204 135.926 537.633 138.839C535.971 138.933 534.146 137.946 532.779 137.041C525.196 132.019 524.454 119.795 529.522 112.785C534.1 106.452 540.339 103.829 547.77 102.633Z"/><path fill="#D3D2D2" d="M666.102 108.619C682.158 109.901 693.218 120.081 685.597 136.427C685.025 137.248 684.396 138.06 683.794 138.863C680.246 135.927 683.912 131.673 671.746 125.839C670.524 118.206 669.897 115.277 666.102 108.619Z"/><path fill="#1D1C1C" d="M620.882 194.18C636.093 194.35 634.8 213.901 652.343 210.01C661.413 207.999 661.164 202.453 665.728 198.699C668.328 202.618 659.972 210.038 657.124 212.127C656.452 212.466 655.773 212.793 655.089 213.108C637.488 221.174 633.518 204.377 622.359 199.127C616.104 196.184 611.069 204.626 609.649 205.335L608.689 204.299C608.321 199.327 616.349 194.768 620.882 194.18Z"/><path fill="#1D1C1C" d="M629.352 137.07C633.306 136.827 638.694 137.26 641.203 140.896C645.297 146.976 642.555 154.6 641.287 161.151C640.34 166.045 640.656 174.755 647.373 175.005C648.631 175.052 649.321 175.198 650.501 175.556C650.486 177.095 650.597 176.334 649.616 177.844C645.049 180.483 638.609 175.424 636.247 171.373C633.501 162.618 638.229 156.541 638.245 147.909C638.255 142.309 634.284 139.556 628.981 140.331C623.437 141.142 619.93 147.684 616.924 151.903C619.117 143.314 620.668 139.859 629.352 137.07Z"/><path fill="#D3D2D2" d="M574.149 75.1992C584.89 74.9039 592.463 80.7278 597.281 89.8679C597.82 90.891 596.809 91.9379 596.295 92.7381C593.493 92.7615 588.122 86.6492 583.346 84.3835L582.738 84.1017C567.105 78.7617 561.819 88.4594 555.868 86.7734C555.766 84.2394 560.716 81.026 562.677 79.4712C566.228 76.6559 569.776 75.7184 574.149 75.1992Z"/><path fill="#1D1C1C" d="M420.452 152.067C422.923 151.82 423.514 151.676 425.909 152.057L426.3 152.702C415.896 156.627 405.494 162.6 402.787 174.877C401.518 180.633 404.124 185.972 407.426 190.621C407.231 191.268 407.228 191.048 406.536 191.63C402.564 190.834 398.957 184.321 397.83 180.703C396.504 176.444 398.426 169.985 400.578 166.255C405.022 158.55 412.033 154.283 420.452 152.067Z"/><path fill="#1D1C1C" d="M517.122 144.644C521.818 144.199 524.92 144.232 529.615 145.896C537.469 148.68 546.992 157.456 543.54 166.669C542.733 168.824 540.14 171.627 537.93 172.481C537.096 168.535 550.12 157.213 528.394 148.184C515.517 145.704 499.032 149.003 499.91 165.909C500.005 167.738 500.837 169.901 500.315 171.641C498.861 170.704 498.221 167.744 498.01 166.123C496.365 153.463 505.706 146.245 517.122 144.644Z"/><path fill="#1D1C1C" d="M463.75 113.589C468.378 113.278 475.001 112.806 478.029 117.283L477.624 118.094C469.838 115.433 464.485 113.673 457.477 120.167C454.322 123.07 452.526 127.161 452.524 131.449C452.533 136.881 455.129 140.427 458.745 144.022C463.259 146.867 462.143 146.102 467.112 147.647L467.286 148.067C459.551 149.551 452.208 143.553 449.964 136.468C448.527 131.913 448.993 126.97 451.257 122.764C454.097 117.566 458.361 115.247 463.75 113.589Z"/><path fill="#1D1C1C" d="M392.939 201.003C393.006 201.346 393.072 201.689 393.139 202.032C390.284 206.484 388.418 210.536 387.747 215.803C386.387 226.491 397.59 234.194 407.442 231.361C409.791 230.686 412.728 228.666 415.137 228.821L415.261 229.587L414.146 230.939C409.65 233.838 404.858 235.505 399.429 234.807C394.982 234.242 390.942 231.934 388.197 228.39C381.633 219.792 384.39 207.277 392.939 201.003Z"/><path fill="#D3D2D2" d="M368.314 155.375C368.438 156.076 368.449 155.902 368.416 156.555C367.982 164.993 368.93 168.058 373.101 175.078C370.438 177.74 368.763 179.553 366.368 182.452L365.964 182.851L365.162 182.705C359.07 174.095 362.37 163.07 368.314 155.375Z"/><path fill="#1D1C1C" d="M554.122 138.211C561.135 137.477 568.468 141.673 572.16 147.532C574.726 151.532 575.493 156.425 574.275 161.017C573.034 165.585 569.622 169.462 565.502 171.608C563.648 172.574 559.506 174.791 557.674 174.295C558.309 172.974 559.932 172.415 561.335 171.676C566.51 168.665 571.724 164.029 571.884 157.558C572.13 147.576 564.741 141.211 555.184 140.513C552.039 140.284 548.82 140.949 545.599 140.984L545.014 140.272C546.689 138.746 551.733 138.453 554.122 138.211Z"/><path fill="#1D1C1C" d="M689.113 197.324C697.424 202.065 699.588 223.788 693.313 230.909C687.856 237.102 685.199 238.433 677.439 239.78C676.749 239.486 676.804 239.441 676.203 238.96C677.411 237.017 685.386 236.721 689.899 230.428C695.209 223.611 695.337 214.135 692.663 206.225C691.724 203.449 689.297 200.291 689.113 197.324Z"/><path fill="#1D1C1C" d="M693.28 249.304C693.826 250.75 693.571 250.766 693.397 252.199C692.107 262.82 680.805 270.318 670.491 267.802C665.865 266.673 663.99 264.776 661.53 260.774C661.317 259.468 661.147 259.382 661.696 258.233C663.505 258.858 665.135 262.585 668.017 263.947C681.082 270.12 688.116 259.128 693.28 249.304Z"/><path fill="#1D1C1C" d="M519.721 98.6131C520.787 98.5666 521.882 98.6079 522.952 98.6242L523.363 99.1916C511.192 103.563 501.343 109.865 499.683 123.92C499.628 125.64 499.679 125.967 499.237 127.667L498.559 127.901C498.341 127.564 498.053 127.181 498.019 126.764C496.855 112.687 506.045 101.274 519.721 98.6131Z"/><path fill="#1D1C1C" d="M613.489 118.58C619.923 118.279 621.232 118.724 626.539 122.032C625.722 121.93 624.904 121.837 624.085 121.753C615.681 120.901 610.944 121.696 604.349 127.085C601.959 129.152 601.524 131.119 599.1 132.906L598.628 132.609C597.889 125.347 607.566 120.159 613.489 118.58Z"/><path fill="#1D1C1C" d="M653.387 172.232C661.186 171.559 668.43 172.112 673.582 179.058C675.42 181.536 676.486 185.287 675.809 188.359C675.067 191.708 673.03 194.627 670.143 196.48L669.852 196.276C670.867 194.062 672.498 192.319 673.045 190.014C674.667 183.181 671.394 178.53 665.503 175.557C660.802 173.184 657.615 174.208 653.338 173.252L653.387 172.232Z"/><path fill="#FFFEFE" d="M539.803 0L1024 0L1024 486.131C1022.91 481.101 1022.48 470.981 1021.96 465.402C1020.92 453.406 1019.43 441.454 1017.47 429.573C1007.21 365.664 984.898 304.288 951.72 248.711C882.809 133.32 771.11 49.8172 640.935 16.3785C619.131 10.7062 596.97 6.50525 574.603 3.80399C568.153 2.98388 561.686 2.2979 555.208 1.74649C550.516 1.35609 544.241 1.23204 539.803 0Z"/><path fill="#FFFEFE" d="M0 0L486.589 0C478.089 1.87234 464.475 1.92282 455.281 2.9884C434.162 5.43828 413.201 9.10028 392.502 13.9563C266.756 43.5424 156.977 119.862 85.4427 227.427C45.79 286.871 19.1565 354.029 7.29025 424.493C5.22586 436.817 3.63316 449.215 2.51563 461.66C2.05837 467.01 1.26064 483.594 0 488.137L0 0Z"/><path fill="#E9B89C" d="M389.572 496.613L390.48 497.013C408.482 523.777 421.593 553.867 439.872 580.3C444.936 587.622 460.188 594.394 468.821 595.988C485.46 599.061 513.909 605.945 528.456 595.274C544.965 583.165 559.08 567.689 573.301 553.113C578.187 548.085 585.076 539.809 589.996 535.566C590.625 536.249 590.478 537.984 590.558 539.199C590.127 543.825 589.43 549.619 589.41 554.175C589.88 556.018 589.197 558.349 590.035 559.197L590.019 559.419L590.674 557.04L591.082 557.561L591.046 564.912C590.728 577.158 590.656 590.198 592.222 602.391C591.841 604.705 591.73 605.654 590.955 607.828C590.249 612.656 583.471 652.267 581.268 654.796C545.068 696.364 480.332 718.54 427.085 702.075C421.887 700.509 415.711 698.495 411.025 695.899C396.948 689.659 384.351 678.689 375.56 666.103C378.197 639.952 382.08 613.877 382.929 587.355C383.515 578.095 385.442 565.254 386.304 555.344C387.882 535.797 388.971 516.214 389.572 496.613Z"/><path fill="#CE947C" d="M408.452 650.756C414.369 666.187 420.607 687.542 427.085 702.075C421.887 700.509 415.711 698.495 411.025 695.899C412.946 691.849 408.391 658.688 408.452 650.756Z"/><path fill="#6F4536" d="M588.511 570.156C589.192 567.8 589.749 566.952 591.046 564.912C590.728 577.158 590.656 590.198 592.222 602.391C591.841 604.705 591.73 605.654 590.955 607.828C588.073 598.392 588.049 580.332 588.511 570.156Z"/><path fill="#7D4E43" d="M589.41 554.175C589.88 556.018 589.197 558.349 590.035 559.197L590.019 559.419L590.674 557.04L591.082 557.561L591.046 564.912C589.749 566.952 589.192 567.8 588.511 570.156C588.507 566.765 588.484 556.988 589.41 554.175Z"/><path fill="#7E4F3D" d="M383.002 424.155C370.462 432.05 362.165 425.787 354.973 415.042C344.494 399.386 340.479 384.754 339.781 366.136C339.358 359.247 338.448 351.436 340.286 344.639C344.323 329.708 352.351 311.193 371.237 315.959L371.245 318.288C390.452 327.098 385.304 340.788 383.562 358.427L383.35 360.883L383.536 363.035L385.582 364.384C385.246 385.718 384.996 406.949 385.421 428.281C385.608 437.686 384.678 451.654 386.436 460.565C387.131 466.877 388.621 472.858 391.063 478.73C399.099 498.058 433.907 555.763 448.864 567.66C462.823 578.763 491.308 585.208 508.781 583.176C518.123 582.09 525.843 578.295 533.658 573.269C547.519 563.586 589.705 523.444 598.138 510.42C608.558 494.326 615.273 473.55 622.06 455.639C628.817 437.809 635.785 420.201 641.248 401.919L642.624 402.524C642.781 403.934 642.461 404.653 642.077 406.006L642.559 406.894L643.109 404.351C643.269 403.142 644.484 400.199 644.971 398.975L645.721 395.432C647.812 389.739 649.971 384.071 652.196 378.43C654.861 377.595 656.446 377.348 659.152 376.902C659.396 375.26 659.224 375.252 660.051 373.874C683.611 372.345 683.451 396.6 678.465 413.007C673.079 430.73 641.265 489.948 617.674 474.544C611.545 489.588 605.326 505.294 596.154 518.371C594.913 520.14 591.29 554.503 591.948 556.776L591.434 557.595L591.082 557.561L590.674 557.04L590.019 559.419L590.035 559.197C589.197 558.349 589.88 556.018 589.41 554.175C589.43 549.619 590.127 543.825 590.558 539.199C590.478 537.984 590.625 536.249 589.996 535.566C585.076 539.809 578.187 548.085 573.301 553.113C559.08 567.689 544.965 583.165 528.456 595.274C513.909 605.945 485.46 599.061 468.821 595.988C460.188 594.394 444.936 587.622 439.872 580.3C421.593 553.867 408.482 523.777 390.48 497.013L389.572 496.613C388.971 516.214 387.882 535.797 386.304 555.344C385.442 565.254 383.515 578.095 382.929 587.355L380.828 588.352C380.96 581.338 382.396 572.926 382.647 565.318C382.79 564.993 383.522 559.225 383.662 558.287C383.548 556.852 383.506 557.068 383.013 555.652C384.547 553.372 388.623 480.845 386.836 474.577C381.521 455.931 382.881 443.747 383.002 424.155Z"/><path fill="#E9B89C" d="M382.942 420.464C382.221 421.128 381.478 421.767 380.714 422.382C366.002 434.009 354.721 410.19 349.613 400.204C343.742 388.726 343.391 378.899 342.183 366.415C340.776 353.785 340.949 343.239 347.59 331.991C353.715 321.617 357.954 315.265 371.245 318.288C390.452 327.098 385.304 340.788 383.562 358.427L383.35 360.883L383.536 363.035C382.798 370.411 382.996 379.252 382.988 386.787L382.942 420.464Z"/><path fill="#CE947C" d="M367.531 358.487C371.856 356.718 374.655 355.17 378.601 352.733L379.454 355.269C376.972 363.243 370.948 366.724 369.221 379.3C369.91 379.649 370.243 379.685 370.993 379.894C373.538 383.512 377.876 390.121 378.075 394.424L377.566 395.622C375.595 396.067 374.853 395.284 373.243 394.099C368.887 390.89 365.332 392.443 360.586 389.584C360.595 382.597 360.877 375.362 361.472 368.409C362.044 361.728 366.66 361.81 367.531 358.487Z"/><path fill="#7E4F3D" d="M379.454 355.269C380.729 356.275 380.921 356.153 381.477 357.527C377.558 363.174 372.526 369.253 373.541 376.583C374.503 383.536 381.999 390.737 379.352 397.156C375.918 400.283 371.977 395.745 369.26 393.761C364.791 393.532 362.808 394.069 360.586 389.584C365.332 392.443 368.887 390.89 373.243 394.099C374.853 395.284 375.595 396.067 377.566 395.622L378.075 394.424C377.876 390.121 373.538 383.512 370.993 379.894C370.243 379.685 369.91 379.649 369.221 379.3C370.948 366.724 376.972 363.243 379.454 355.269Z"/><path fill="#CE947C" d="M350.439 334.207C351.766 332.662 354.849 328.37 356.409 327.838C363.81 325.311 371.907 337.578 374.698 342.623C372.297 341.874 371.017 340.831 368.831 339.517C363.67 336.416 356.576 333.555 350.439 334.207Z"/><defs><linearGradient id="gradient_2" gradientUnits="userSpaceOnUse" x1="364.62122" y1="345.28391" x2="372.67865" y2="333.34464"><stop offset="0" stop-color="#684034"/><stop offset="1" stop-color="#8C5947"/></linearGradient></defs><path fill="url(#gradient_2)" d="M350.439 334.207C350.068 332.801 350.142 331.484 350.925 330.259C354.357 324.884 359.995 323.291 365.028 327.183C372.88 333.253 377.119 341.138 380.406 350.269C381.061 352.113 382.783 357.25 383.562 358.427L383.35 360.883C382.072 359.414 382.132 359.295 381.477 357.527C380.921 356.153 380.729 356.275 379.454 355.269L378.601 352.733L378.246 350.827C377.485 347.749 376.131 345.45 374.698 342.623C371.907 337.578 363.81 325.311 356.409 327.838C354.849 328.37 351.766 332.662 350.439 334.207Z"/><path fill="#7E4F3D" d="M367.531 358.487L366.824 357.92C367.652 355.796 375.411 352.459 378.246 350.827L378.601 352.733C374.655 355.17 371.856 356.718 367.531 358.487Z"/><path fill="#7E4F3D" d="M361.652 337.724L362.726 338.213C363.134 341.114 354.197 356.917 354.159 362.149C354.151 363.241 351.658 373.941 351.148 374.811C350.553 374.397 349.978 374.203 349.951 373.605C349.608 366.203 357.956 343.133 361.652 337.724Z"/><path fill="#6F4536" d="M348.201 338.892C348.383 340.662 346.462 348.48 346.356 352.007C346.227 356.319 348.049 366.728 347.417 369.689C343.378 363.828 344.062 344.847 348.201 338.892Z"/><path fill="#6F4536" d="M349.993 387.387C353.201 388.726 356.638 398.037 359.976 400.418C361.253 401.329 363.17 402.099 364.619 402.716L365.082 403.901C359.348 406.236 349.926 392.202 349.993 387.387Z"/><path fill="#CE947C" d="M390.072 482.746C400.458 503.348 429.192 553.605 445.148 567.98C451.328 573.548 459.267 577.418 467.116 580.002C485.38 586.013 508.838 589.527 526.596 580.449C539.368 573.919 550.013 562.947 560.422 553.246C571.562 542.864 582.544 532.363 592.926 521.217C592.479 524.793 591.299 536.228 590.558 539.199C590.478 537.984 590.625 536.249 589.996 535.566C585.076 539.809 578.187 548.085 573.301 553.113C559.08 567.689 544.965 583.165 528.456 595.274C513.909 605.945 485.46 599.061 468.821 595.988C460.188 594.394 444.936 587.622 439.872 580.3C421.593 553.867 408.482 523.777 390.48 497.013L389.572 496.613C389.487 491.786 389.457 487.55 390.072 482.746Z"/><path fill="#E9B89C" d="M659.152 376.902C664.285 376.428 669.008 375.705 673.28 379.307C680.114 385.067 679.064 404.485 676.082 412.469C670.537 427.315 658.833 448.196 648.5 460.24C641.754 468.103 628.89 479.614 618.662 471.993L628.1 446.921C633.27 446.407 634.733 446.239 639.432 443.621C640.804 440.538 643.802 437.153 644.698 434.681C647.639 426.57 647.992 411.434 643.109 404.351C643.269 403.142 644.484 400.199 644.971 398.975L645.721 395.432C647.812 389.739 649.971 384.071 652.196 378.43C654.861 377.595 656.446 377.348 659.152 376.902Z"/><path fill="#CE947C" d="M655.376 392.17C657.995 390.528 672.025 383.325 673.372 388.74C675.668 397.969 670.986 410.639 667.177 419.029C665.459 422.761 662.482 427.996 662.095 430.919C660.762 432.634 660.792 431.368 659.034 432.767C659.08 426.368 665.114 396.157 659.475 394.009C658.194 393.115 657.827 393.368 656.048 393.174L655.376 392.17Z"/><path fill="#7E4F3D" d="M645.721 395.432C669.078 380.899 683.066 375.991 672.463 411.691C670.473 418.389 666.199 425.313 662.095 430.919C662.482 427.996 665.459 422.761 667.177 419.029C670.986 410.639 675.668 397.969 673.372 388.74C672.025 383.325 657.995 390.528 655.376 392.17C651.917 394.382 648.317 396.615 644.971 398.975L645.721 395.432Z"/><path fill="#6F4536" d="M659.475 394.009C665.114 396.157 659.08 426.368 659.034 432.767L658.47 433.963C657.212 434.705 657.858 434.656 656.522 434.34C655.444 431.58 658.369 425.141 658.829 421.316C660.006 411.516 660.082 403.787 659.475 394.009Z"/><path fill="#CE947C" d="M642.559 406.894C644.903 411.242 644.731 428.319 642.817 433.487C641.998 435.7 640.788 438.88 639.83 441.165C635.687 443.382 633.614 444.66 628.747 444.875C632.67 435.068 635.957 437.112 641.951 430.263C642.247 424.409 641.082 419.526 639.968 413.767C641.412 410.912 641.865 410.135 642.559 406.894Z"/><path fill="#E9B89C" d="M638.244 419.855C641.26 426.749 639.267 430.578 633.788 434.699L633.368 434.784L633.106 434.325C634.424 429.813 636.598 424.342 638.244 419.855Z"/><path fill="#D3D2D2" d="M459.942 88.1771C460.938 81.371 481.449 78.3832 485.789 83.2899L483.112 85.5041C478.918 88.2461 477.345 92.7192 475.558 97.1885C470.606 93.763 465.705 89.9872 459.942 88.1771Z"/><defs><linearGradient id="gradient_3" gradientUnits="userSpaceOnUse" x1="475.57541" y1="76.400093" x2="470.63062" y2="91.471939"><stop offset="0" stop-color="#36251C"/><stop offset="1" stop-color="#4D3E2F"/></linearGradient></defs><path fill="url(#gradient_3)" d="M511.436 87.7545C521.74 78.9459 533.218 71.6966 546.889 79.8173C544.444 79.5386 542.662 78.7143 540.391 78.132C533.2 76.2892 525.431 78.0533 519.5 82.4422C516.836 84.2984 513.566 88.6641 510.784 88.2214C509.036 87.9433 503.484 83.7738 502.635 83.5896C500.332 83.0896 490.8 81.5642 488.758 82.8337C486.769 84.0701 485.117 85.8243 483.112 85.5041L485.789 83.2899C481.449 78.3832 460.938 81.371 459.942 88.1771C459.391 88.2377 456.493 87.6502 455.758 87.5163C462.044 78.1312 472.117 74.9756 482.836 77.9807C484.461 78.2628 489.078 80.9918 490.326 81.095C500.555 81.9397 502.817 82.5257 511.436 87.7545Z"/><path fill="#1D1C1C" d="M721.724 219.703C720.876 219.212 721.242 219.571 720.751 218.512L721.71 217.23C734.131 221.487 735.541 233.932 727.228 243.055C727.334 240.787 727.795 238.302 728.143 236.038C728.199 228.297 726.517 225.331 721.724 219.703Z"/><path fill="#D3D2D2" d="M721.724 219.703C727.999 222.298 731.702 230.081 728.143 236.038C728.199 228.297 726.517 225.331 721.724 219.703Z"/></svg>